<?xml version="1.0" standalone="no"?>
<!DOCTYPE svg PUBLIC "-//W3C//DTD SVG 20010904//EN"
 "http://www.w3.org/TR/2001/REC-SVG-20010904/DTD/svg10.dtd">
<svg version="1.0" xmlns="http://www.w3.org/2000/svg"
 width="64.000000pt" height="64.000000pt" viewBox="0 0 64.000000 64.000000"
 preserveAspectRatio="xMidYMid meet">

<g transform="translate(0.000000,64.000000) scale(0.100000,-0.100000)"
fill="#000000" stroke="none">
<path d="M25 507 c-3 -7 -4 -96 -3 -197 l3 -185 295 0 295 0 0 195 0 195 -293
3 c-232 2 -294 0 -297 -11z m545 -12 c0 -6 -243 -215 -250 -215 -5 0 -201 167
-235 201 -19 19 -17 19 233 19 139 0 252 -2 252 -5z m-420 -104 c41 -35 76
-67 77 -70 1 -3 -33 -35 -74 -71 -126 -108 -113 -116 -113 71 0 152 1 161 18
148 9 -8 51 -43 92 -78z m448 -152 l-3 -81 -92 79 c-50 43 -92 80 -92 83 0 3
42 40 92 83 l92 79 3 -81 c2 -45 2 -117 0 -162z m-312 35 l34 -26 35 27 36 27
42 -35 c23 -19 65 -55 92 -80 l50 -46 -255 -1 -255 0 25 24 c33 32 154 136
158 136 2 0 19 -12 38 -26z"/>
</g>
</svg>
