<?xml version="1.0" standalone="no"?>
<!DOCTYPE svg PUBLIC "-//W3C//DTD SVG 20010904//EN"
 "http://www.w3.org/TR/2001/REC-SVG-20010904/DTD/svg10.dtd">
<svg version="1.0" xmlns="http://www.w3.org/2000/svg"
 width="50.000000pt" height="50.000000pt" viewBox="0 0 50.000000 50.000000"
 preserveAspectRatio="xMidYMid meet">

<g transform="translate(0.000000,50.000000) scale(0.100000,-0.100000)"
fill="#000000" stroke="none">
<path d="M155 462 c-149 -71 -182 -267 -64 -379 45 -43 97 -63 161 -63 69 1
125 27 171 80 47 55 60 97 55 171 -5 70 -40 127 -106 173 -56 40 -155 47 -217
18z m198 -34 c70 -39 116 -132 102 -207 -8 -42 -42 -111 -54 -111 -25 0 -101
41 -101 54 0 9 9 31 19 49 17 31 26 86 22 145 -1 28 -54 62 -97 62 -17 0 -43
-9 -58 -21 -23 -18 -26 -27 -26 -84 0 -46 6 -75 20 -100 11 -20 20 -42 20 -51
0 -13 -76 -54 -101 -54 -12 0 -46 69 -54 111 -4 20 -1 56 5 80 36 134 180 195
303 127z m-70 -40 c15 -7 30 -22 33 -33 8 -34 -1 -99 -20 -133 -28 -54 -19
-83 38 -111 l48 -24 -33 -18 c-66 -35 -157 -32 -212 6 -16 11 -14 15 30 36 56
28 65 57 37 111 -33 63 -28 153 9 168 30 12 39 12 70 -2z"/>
</g>
</svg>
