<?xml version="1.0" standalone="no"?>
<!DOCTYPE svg PUBLIC "-//W3C//DTD SVG 20010904//EN"
 "http://www.w3.org/TR/2001/REC-SVG-20010904/DTD/svg10.dtd">
<svg version="1.0" xmlns="http://www.w3.org/2000/svg"
 width="50.000000pt" height="50.000000pt" viewBox="0 0 50.000000 50.000000"
 preserveAspectRatio="xMidYMid meet">

<g transform="translate(0.000000,50.000000) scale(0.100000,-0.100000)"
fill="#000000" stroke="none">
<path d="M174 426 c-28 -28 -34 -41 -34 -77 0 -23 -10 -62 -21 -87 -51 -105
18 -222 131 -222 113 0 182 117 131 222 -11 25 -21 64 -21 87 0 36 -6 49 -34
77 -28 28 -42 34 -76 34 -34 0 -48 -6 -76 -34z m139 -14 c10 -10 20 -35 24
-56 6 -37 5 -38 -18 -30 -30 11 -107 12 -136 1 -20 -7 -23 -5 -23 15 1 81 97
125 153 70z m-4 -110 c38 -20 71 -73 71 -112 0 -62 -68 -130 -130 -130 -62 0
-130 68 -130 130 0 62 68 130 130 130 14 0 41 -8 59 -18z"/>
<path d="M224 205 c-6 -14 16 -75 26 -75 10 0 32 61 26 75 -7 19 -45 19 -52 0z"/>
</g>
</svg>
