<?xml version="1.0" standalone="no"?>
<!DOCTYPE svg PUBLIC "-//W3C//DTD SVG 20010904//EN"
 "http://www.w3.org/TR/2001/REC-SVG-20010904/DTD/svg10.dtd">
<svg version="1.0" xmlns="http://www.w3.org/2000/svg"
 width="48.000000pt" height="48.000000pt" viewBox="0 0 48.000000 48.000000"
 preserveAspectRatio="xMidYMid meet">

<g transform="translate(0.000000,48.000000) scale(0.100000,-0.100000)"
fill="#000000" stroke="none">
<path d="M169 376 c-20 -7 -52 -23 -72 -35 -36 -22 -97 -85 -97 -100 0 -16 41
-61 56 -61 18 0 18 24 -1 40 -8 7 -15 17 -15 22 0 27 129 108 173 108 14 0 30
6 36 13 23 29 -19 35 -80 13z"/>
<path d="M305 360 c-3 -5 18 -24 47 -43 29 -19 62 -44 72 -56 19 -21 19 -22
-9 -51 -73 -76 -184 -100 -270 -58 -24 12 -47 19 -51 15 -15 -15 9 -37 63 -57
68 -25 122 -22 192 12 46 22 131 97 131 116 0 18 -48 69 -97 101 -48 32 -68
38 -78 21z"/>
<path d="M202 318 c-15 -15 -15 -61 0 -76 15 -15 61 -15 76 0 15 15 15 61 0
76 -7 7 -24 12 -38 12 -14 0 -31 -5 -38 -12z"/>
<path d="M337 304 c-4 -4 -7 -19 -7 -34 0 -42 -44 -80 -92 -80 -46 0 -88 35
-88 74 0 28 -17 43 -32 28 -16 -16 9 -78 42 -106 42 -35 83 -41 127 -19 46 23
74 61 76 103 2 31 -11 48 -26 34z"/>
</g>
</svg>
