<svg width="169" height="44" viewBox="0 0 169 44" fill="none" xmlns="http://www.w3.org/2000/svg">
<path d="M0 0H5.58678L13.4868 22L21.3869 44H16.4984L0 0Z" fill="white"/>
<path d="M20.6885 33.1945L32.735 0H38.1472L22.7836 39.9371L20.6885 33.1945Z" fill="white"/>
<path d="M45.3922 10.8919V44H40.3292V10.8919H45.3922Z" fill="white"/>
<path d="M76.2944 16.1613V10.8919L64.2891 10.8919C56.1115 10.8919 50.8047 19.2352 50.8047 28.9836H56.8074C56.6901 21.64 60.6796 17.458 63.8115 16.5972C66.9433 15.7365 76.2944 16.1613 76.2944 16.1613Z" fill="white"/>
<path d="M50.8046 38.2368V43.5062L62.8099 43.5062C71.8425 43.5062 76.2943 35.1629 76.2942 25.4145H70.2916C70.4089 32.7581 66.245 37.0017 63.1131 37.8625C59.9812 38.7232 50.8046 38.2368 50.8046 38.2368Z" fill="white"/>
<path d="M80.048 10.8919H105.538V16.1613H80.048V10.8919Z" fill="white"/>
<path d="M90.436 17.4617H96.11V44H90.436V17.4617Z" fill="white"/>
<path d="M109.204 10.9784H126.575C132.599 10.9784 135.881 14.6076 136.178 19.4499C136.778 27.8806 133.33 28.996 128.409 31.1198L137.138 43.4813H130.416L122.211 31.8978H115.14V43.4813H109.204V26.9705H124.393C128.496 26.6248 129.893 24.6365 129.893 21.0923C129.893 17.5481 127.71 16.1613 124.393 15.9057H109.204V10.9784Z" fill="white"/>
<path fill-rule="evenodd" clip-rule="evenodd" d="M142.114 10.9784V43.4813L169 26.9705L142.114 10.9784ZM158.699 26.9705C158.63 26.9705 150.407 21.9568 146.304 19.4499V34.8369C150.465 32.2148 158.769 26.9705 158.699 26.9705Z" fill="white"/>
</svg>
